#!OML:ASF I:\Actors\actors\Patient Classification 1\Patient 1\Session 1\Subject1.ASF
:FULLY-SPECIFIED
:DEGREES
2103
root 1.08056 17.5547 8.59742 14.3777 -0.459793 -6.03148
lowerback 9.55037 3.93857 11.1888
upperback -4.57158 7.4 5.98052
thorax -9.79789 3.06452 -1.03272
lowerneck -8.65521 -9.74149 -3.16388
upperneck 13.2068 -12.6217 -0.906301
head 5.54375 -6.36192 -0.711019
rclavicle 3.08116e-014 -9.06458e-014
rhumerus 29.3133 6.5236 -65.1423
rradius 60.0582
rwrist 39.018
rhand -37.0999 -66.3656
rfingers 7.12502
rthumb -10.171 1176.1
lclavicle 3.08116e-014 -9.06458e-014
lhumerus -43.2874 4.4988 83.6321
lradius 110.315
lwrist 74.3915
lhand -32.1331 15.74
lfingers 7.12502
lthumb -5.37726 45.6517
rfemur -16.6292 18.3065 16.5169
rtibia 10.2704
rfoot -12.728 -23.2464
rtoes 0.483012
lfemur -12.5023 -25.7734 -6.74357
ltibia 3.19831
lfoot -8.66764 34.4314
ltoes -5.96535
2104
root 1.07932 17.5548 8.59579 14.3936 -0.424725 -6.02144
lowerback 9.4959 3.93143 11.1512
upperback -4.55558 7.37588 5.99794
thorax -9.75605 3.05911 -0.985709
lowerneck -8.7371 -9.72391 -3.23813
upperneck 13.2782 -12.5954 -0.833229
head 5.5894 -6.34662 -0.683431
rclavicle 2.68359e-014 6.83819e-014
rhumerus 29.3905 6.52496 -65.1987
rradius 59.9861
rwrist 39.0106
rhand -37.1329 -66.1353
rfingers 7.12502
rthumb -10.2029 1175.87
lclavicle 2.68359e-014 6.83819e-014
lhumerus -43.2591 4.61327 83.5781
lradius 110.301
lwrist 74.3969
lhand -32.0673 15.6502
lfingers 7.12502
lthumb -5.31375 45.5635
rfemur -16.6327 18.3009 16.5081
rtibia 10.2602
rfoot -12.7185 -23.2735
rtoes 0.308909
lfemur -12.551 -25.772 -6.73421
ltibia 3.22233
lfoot -8.58419 34.3992
ltoes -6.17152
2105
root 1.07859 17.5548 8.59444 14.399 -0.398315 -6.01562
lowerback 9.47751 3.93632 11.1261
upperback -4.55549 7.37624 5.99898
thorax -9.74778 3.06163 -0.969824
lowerneck -8.84817 -9.71771 -3.29823
upperneck 13.414 -12.5881 -0.748454
head 5.66029 -6.33845 -0.65959
rclavicle -3.598e-014 -4.77083e-014
rhumerus 29.4228 6.52149 -65.2536
rradius 59.8879
rwrist 38.9209
rhand -37.169 -65.9575
rfingers 7.12502
rthumb -10.2377 1175.69
lclavicle -3.598e-014 -4.77083e-014
lhumerus -43.2648 4.62642 83.5356
lradius 110.294
lwrist 74.445
lhand -32.092 15.5697
lfingers 7.12502
lthumb -5.33754 45.4825
rfemur -16.6355 18.2846 16.5083
rtibia 10.2648
rfoot -12.7536 -23.2579
rtoes 0.184195
lfemur -12.5729 -25.7632 -6.73179
ltibia 3.22844
lfoot -8.48862 34.3666
ltoes -6.52478
2106
root 1.07869 17.5549 8.59332 14.4003 -0.393509 -6.00643
lowerback 9.48795 3.95022 11.1105
upperback -4.57616 7.39602 5.98335
thorax -9.77497 3.06964 -0.982619
lowerneck -8.90047 -9.70248 -3.2679
upperneck 13.4839 -12.5704 -0.751665
head 5.68862 -6.32797 -0.668744
rclavicle 3.12092e-014 3.18055e-014
rhumerus 29.3965 6.52667 -65.2973
rradius 59.8269
rwrist 38.7363
rhand -37.0557 -65.9085
rfingers 7.12502
rthumb -10.1283 1175.64
lclavicle 3.12092e-014 3.18055e-014
lhumerus -43.3096 4.59494 83.5058
lradius 110.302
lwrist 74.5101
lhand -32.2598 15.6343
lfingers 7.12502
lthumb -5.49954 45.543
rfemur -16.6512 18.2923 16.4949
rtibia 10.2875
rfoot -12.8187 -23.2275
rtoes 0.11678
lfemur -12.5695 -25.802 -6.73426
ltibia 3.20388
lfoot -8.56541 34.3928
ltoes -6.38069
2107
root 1.07908 17.5549 8.59297 14.4061 -0.410846 -6.00312
lowerback 9.49565 3.96755 11.087
upperback -4.60446 7.42077 5.97636
thorax -9.81094 3.0803 -0.982611
lowerneck -8.85393 -9.68485 -3.21008
upperneck 13.4481 -12.5511 -0.78636
head 5.6632 -6.31887 -0.682141
rclavicle -2.70347e-014 5.24792e-014
rhumerus 29.3617 6.54922 -65.3313
rradius 59.7478
rwrist 38.5981
rhand -37.0482 -65.9273
rfingers 7.12502
rthumb -10.1211 1175.66
lclavicle -2.70347e-014 5.24792e-014
lhumerus -43.3762 4.58606 83.4903
lradius 110.32
lwrist 74.5397
lhand -32.3415 15.647
lfingers 7.12502
lthumb -5.57846 45.5535
rfemur -16.675 18.3026 16.487
rtibia 10.3219
rfoot -12.8155 -23.2308
rtoes -0.0294254
lfemur -12.5469 -25.8953 -6.74027
ltibia 3.16935
lfoot -8.67713 34.5089
ltoes -6.12674
2108
root 1.07934 17.5551 8.593 14.4081 -0.42964 -6.00711
lowerback 9.50306 3.98681 11.0649
upperback -4.62388 7.44778 5.97733
thorax -9.83756 3.09297 -0.974977
lowerneck -8.80367 -9.7028 -3.17209
upperneck 13.3625 -12.5774 -0.816599
head 5.62359 -6.33279 -0.693063
rclavicle -5.56597e-015 4.77083e-014
rhumerus 29.3515 6.55657 -65.3696
rradius 59.6238
rwrist 38.5911
rhand -37.1675 -66.0615
rfingers 7.12502
rthumb -10.2362 1175.79
lclavicle -5.56597e-015 4.77083e-014
lhumerus -43.4308 4.57999 83.4928
lradius 110.349
lwrist 74.5675
lhand -32.3304 15.57
lfingers 7.12502
lthumb -5.56773 45.4768
rfemur -16.6744 18.2856 16.4936
rtibia 10.3128
rfoot -12.7496 -23.2379
rtoes -0.109696
lfemur -12.5115 -26.0213 -6.74402
ltibia 3.13115
lfoot -8.72731 34.6585
ltoes -5.95986
2109
root 1.08019 17.5554 8.59246 14.4038 -0.433972 -6.00152
lowerback 9.52777 3.99894 11.0675
upperback -4.63825 7.4692 5.96368
thorax -9.86436 3.10065 -0.996627
lowerneck -8.75723 -9.74216 -3.13657
upperneck 13.2258 -12.6334 -0.835125
head 5.5698 -6.36058 -0.700857
rclavicle 1.66979e-014 -3.97569e-014
rhumerus 29.3398 6.53138 -65.4321
rradius 59.5499
rwrist 38.6652
rhand -37.1328 -66.1302
rfingers 7.12502
rthumb -10.2027 1175.86
lclavicle 1.66979e-014 -3.97569e-014
lhumerus -43.464 4.56566 83.4959
lradius 110.362
lwrist 74.5481
lhand -32.2882 15.5822
lfingers 7.12502
lthumb -5.52697 45.4901
rfemur -16.6616 18.2836 16.4829
rtibia 10.2809
rfoot -12.7059 -23.2249
rtoes 0.0610956
lfemur -12.4742 -26.1573 -6.75022
ltibia 3.07582
lfoot -8.72551 34.7626
ltoes -5.76194
2110
root 1.08188 17.5556 8.59163 14.3954 -0.400045 -5.98681
lowerback 9.55718 3.99513 11.0896
upperback -4.65125 7.47213 5.94627
thorax -9.89134 3.09796 -1.0302
lowerneck -8.68206 -9.77127 -3.12227
upperneck 13.0713 -12.6802 -0.803725
head 5.5103 -6.38158 -0.687702
rclavicle 1.43125e-014 4.29375e-014
rhumerus 29.3005 6.4938 -65.4875
rradius 59.5738
rwrist 38.7457
rhand -37.0212 -66.0444
rfingers 7.12502
rthumb -10.0951 1175.78
lclavicle 1.43125e-014 4.29375e-014
lhumerus -43.4765 4.55304 83.5092
lradius 110.354
lwrist 74.5002
lhand -32.2362 15.6487
lfingers 7.12502
lthumb -5.47674 45.558
rfemur -16.6439 18.2739 16.4644
rtibia 10.2599
rfoot -12.7141 -23.2116
rtoes 0.311978
lfemur -12.4484 -26.2705 -6.7633
ltibia 3.01706
lfoot -8.6409 34.8156
ltoes -5.78299
2111
root 1.08287 17.5557 8.5915 14.3881 -0.350003 -5.96661
lowerback 9.56597 3.9849 11.0851
upperback -4.65794 7.46022 5.94441
thorax -9.90546 3.09158 -1.02888
lowerneck -8.59169 -9.78227 -3.12811
upperneck 12.931 -12.7003 -0.771359
head 5.45396 -6.39051 -0.668936
rclavicle 1.35174e-014 -6.36111e-014
rhumerus 29.2429 6.49105 -65.4994
rradius 59.6151
rwrist 38.7846
rhand -37.0089 -66.0712
rfingers 7.12502
rthumb -10.0833 1175.81
lclavicle 1.35174e-014 -6.36111e-014
lhumerus -43.4804 4.54992 83.5476
lradius 110.35
lwrist 74.5005
lhand -32.2472 15.6353
lfingers 7.12502
lthumb -5.48743 45.5442
rfemur -16.6285 18.2398 16.4451
rtibia 10.251
rfoot -12.7711 -23.2023
rtoes 0.400736
lfemur -12.4332 -26.2588 -6.7821
ltibia 2.95891
lfoot -8.58804 34.7703
ltoes -5.81879
